<svg width="634" height="646" viewBox="0 0 634 646" fill="none" xmlns="http://www.w3.org/2000/svg">
<path d="M130.202 516.097C117.065 534.864 135.676 548.939 146.624 553.631L205.273 560.669C209.574 565.36 220.522 578.966 229.906 595.857C241.636 616.97 267.441 634.563 289.728 634.563C307.557 634.563 308.887 608.759 307.323 595.857L341.34 614.623C354.242 616.969 381.221 612.277 385.913 574.744C409.373 595.856 422.276 580.608 436.352 574.744C450.428 568.879 437.525 540.729 460.984 532.518C479.752 525.95 535.274 473.481 560.688 448.067L619.338 448.067L619.338 191.196L411.719 184.158L187.678 469.18C173.993 477 143.34 497.33 130.202 516.097Z" fill="#DA9267"/>
<path d="M118.472 328.429C128.794 294.649 180.64 286.985 205.273 287.376C213.484 277.602 240.228 243.274 281.517 184.158C232.252 177.121 152.488 190.023 118.472 201.753C84.455 213.482 65.6873 245.151 52.7844 268.61C39.8815 292.068 19.9406 377.692 15.2487 403.496C10.5567 429.301 8.21076 453.932 26.9786 469.18C45.7464 484.428 69.2062 469.18 80.9361 448.067C92.666 426.955 105.569 370.654 118.472 328.429Z" fill="#DA9267"/>
<path d="M30.4975 528.999L369.491 71.5564C369.491 79.3759 373.479 99.2375 389.432 116.128C405.385 133.018 432.833 138.804 444.562 139.586L190.024 465.66C178.685 473.089 152.957 491.465 140.758 505.54C128.559 519.615 130.984 540.337 133.72 548.938L109.088 581.78C104.005 581.78 88.4431 580.138 66.8601 573.57C45.2772 567.001 33.6255 541.119 30.4975 528.999Z" fill="#FFDF6F"/>
<path d="M402.335 123.166C378.875 113.783 373.01 86.4143 373.01 73.903L429.314 5.87315C435.961 8.60998 452.773 16.8987 466.849 28.1588C480.925 39.4189 490.7 55.5271 493.828 62.1737L442.216 137.241C438.698 136.459 425.795 132.549 402.335 123.166Z" fill="#FC5353"/>
<path d="M52.7842 560.668C64.9833 570.052 88.3649 580.217 98.5308 584.127L17.5946 627.525L29.3245 530.172C32.0614 536.428 40.5852 551.285 52.7842 560.668Z" fill="#FFF6E6"/>
<path fill-rule="evenodd" clip-rule="evenodd" d="M3.13388 642.271C4.85818 643.868 7.4716 645.477 8.94253 645.846C12.6879 646.786 22.5973 643.256 25.8089 639.836C27.2869 638.263 30.3977 636.366 32.7225 635.62C35.0474 634.874 40.0443 632.22 43.8272 629.722C47.6101 627.223 51.2558 625.179 51.9279 625.179C52.5988 625.179 54.7829 623.968 56.7794 622.489C58.7758 621.01 63.8396 618.08 68.033 615.977C80.9898 609.478 86.0794 606.427 89.7333 602.968C91.6687 601.136 94.9683 598.773 97.0645 597.716C99.1606 596.66 100.877 595.281 100.877 594.652C100.877 594.023 101.616 593.51 102.52 593.51C105.015 593.51 118.472 582.996 118.472 581.045C118.472 580.105 119.568 578.171 120.909 576.746C122.25 575.322 124.073 572.573 124.959 570.638C125.846 568.702 128.463 565.03 130.775 562.476L134.978 557.834L138.748 559.756C142.621 561.733 147.481 563.48 149.556 563.645C150.201 563.696 153.314 564.147 156.473 564.646C159.633 565.146 170.982 565.696 181.692 565.867C192.404 566.04 201.755 566.259 202.473 566.356C203.191 566.453 204.727 569.567 205.886 573.277C207.046 576.987 209.35 582.132 211.009 584.713C212.666 587.293 214.56 590.322 215.22 591.444C218.647 597.284 226.534 607.482 232.251 613.464C235.8 617.176 239.59 621.199 240.673 622.402C241.756 623.607 243.34 625.124 244.192 625.773C245.044 626.423 249.2 629.685 253.427 633.021C263.836 641.236 271.76 644.186 280.93 643.261C291.942 642.149 296.978 640.504 302.044 636.364C305.639 633.426 313.687 622.982 318.68 614.774C318.908 614.4 327.953 621.049 329.609 622.808C331.219 624.518 339.357 626.361 346.097 626.543C353.738 626.748 365.972 623.684 365.972 621.566C365.972 620.973 366.913 620.487 368.064 620.487C371.652 620.487 381.554 611.762 386.033 604.652C387.252 602.717 388.252 599.707 388.254 597.963C388.258 595.453 389.784 590.386 391.291 587.881C391.407 587.688 393.406 588.6 395.734 589.908C400.464 592.563 414.679 593.557 422.761 591.795C427.481 590.766 444.381 580.373 446.126 577.425C446.664 576.517 448.691 573.967 450.631 571.758C453.051 569.001 454.864 564.916 456.407 558.743C457.644 553.793 459.129 549.167 459.708 548.461C460.286 547.756 460.942 545.881 461.165 544.294C461.558 541.496 466.088 538.313 477.033 533.143C479.086 532.174 481.069 530.887 481.442 530.284C481.814 529.682 486.732 526.424 492.372 523.045C502.944 516.711 518.287 505.484 525.499 498.806C527.757 496.715 529.945 494.999 530.363 494.994C531.961 494.972 560.55 465.812 562.308 462.411L564.158 458.834L579.138 458.649C629.451 458.025 627.212 458.16 630.719 455.539L634 453.088L633.869 403.367C633.718 346.356 633.696 333.122 633.694 301.45C633.694 288.871 633.595 275.147 633.477 270.954C633.173 260.195 632.984 218.344 633.186 206.443C633.428 192.16 632.542 187.041 629.124 182.98L626.15 179.446L604.269 179.627C592.235 179.726 576.054 179.465 568.313 179.045C548.732 177.982 477.677 176.612 451.894 176.8C440.119 176.887 430.499 176.597 430.516 176.158C430.531 175.719 432.511 172.756 434.915 169.572C442.11 160.041 448.081 151.15 448.081 149.968C448.081 148.725 457.805 139.149 461.832 136.429C463.355 135.399 464.758 132.884 465.202 130.382C465.622 128.026 466.889 125.042 468.016 123.752C469.145 122.462 471.58 119.031 473.428 116.128C475.277 113.225 479.832 106.815 483.549 101.885C487.267 96.9538 490.309 92.5378 490.309 92.0721C490.309 91.6053 492.213 88.6296 494.541 85.4591C506.135 69.6657 506.36 54.7342 495.226 40.1113C493.6 37.9765 490.906 35.5028 489.237 34.6126C487.569 33.7236 483.108 30.0605 479.325 26.4714C472.638 20.1293 470.75 18.8027 462.157 14.416C459.899 13.263 453.951 9.54948 448.939 6.16325C435.737 -2.75338 431.234 -2.2983 415.743 9.5178C406.068 16.8979 401.392 21.9228 382.695 45.0236C379.627 48.8157 374.74 54.6991 371.837 58.0971C368.934 61.4962 364.447 67.2682 361.867 70.9242C359.286 74.5802 355.063 80.0824 352.483 83.152C349.902 86.2215 344.888 92.4944 341.339 97.0911C337.791 101.689 333.682 106.104 332.206 106.904C330.732 107.704 328.885 109.512 328.101 110.922C327.319 112.332 325.683 115.268 324.469 117.446C323.257 119.624 319.969 124.045 317.166 127.27C306.803 139.195 304.919 141.456 301.177 146.47C299.073 149.289 296.297 153.293 295.006 155.368C290.203 163.093 286.272 168.731 285.251 169.363C284.671 169.721 282.435 169.509 280.283 168.892C277.852 168.195 274.786 168.18 272.198 168.851C269.904 169.447 260.638 170.199 251.606 170.521C242.574 170.845 232.357 171.667 228.902 172.349C225.448 173.03 222.166 173.307 221.611 172.963C221.056 172.621 217.813 173.136 214.403 174.108C210.994 175.08 204.049 176.169 198.969 176.525C193.89 176.882 187.556 177.676 184.893 178.291C182.232 178.905 176.76 179.421 172.735 179.438C168.598 179.453 162.989 180.385 159.832 181.581C156.76 182.744 152.312 183.504 149.947 183.271C147.042 182.983 143.806 183.778 139.977 185.716C136.858 187.295 131.668 189.376 128.442 190.338C120.912 192.585 108.229 198.837 98.5307 205.081C94.3373 207.782 89.8717 210.643 88.606 211.442C86.3175 212.887 84.5428 214.614 73.844 225.797C62.5974 237.552 51.4915 254.617 44.8606 270.33C42.6917 275.471 40.3469 280.363 39.649 281.203C38.1945 282.957 33.2281 296.271 31.4416 303.21C30.217 307.961 24.5315 323.588 21.5603 330.364C20.6701 332.397 19.91 336.092 19.8724 338.575C19.8361 341.058 18.7663 346.784 17.4959 351.3C14.072 363.469 11.8093 373.754 10.5284 382.969C9.90202 387.485 8.79707 394.61 8.07568 398.804C7.35312 402.997 6.57308 408.803 6.34083 411.706C6.10857 414.609 5.31798 422.729 4.58252 429.749C3.62301 438.915 3.60072 443.711 4.50393 446.756C5.19482 449.09 6.04758 452.846 6.39948 455.104C7.37189 461.36 13.4609 473.315 16.9306 475.78C18.6302 476.987 21.9826 479.492 24.379 481.342C30.4094 486.001 38.7071 489.409 42.2824 488.696C43.9257 488.368 45.9914 488.545 46.8735 489.091C48.1602 489.886 47.9174 490.779 45.6453 493.609C44.0876 495.549 40.2566 500.647 37.1318 504.938C34.0069 509.229 28.9232 514.555 25.8336 516.774C20.6185 520.521 17.8303 524.741 17.7552 528.999C17.6907 532.713 16.3159 541.624 14.6808 548.938C13.177 555.665 11.5032 566.108 10.0322 577.936C9.77418 580.014 9.25805 582.207 8.88505 582.81C8.21996 583.887 7.77071 586.422 4.28459 608.758C3.3286 614.886 1.9867 622.276 1.30168 625.179C-0.868349 634.379 -0.369833 639.023 3.13388 642.271ZM24.711 422.849C25.3902 418.333 26.2371 412.527 26.5901 409.946C27.4276 403.844 27.9039 403.495 30.5982 407.014C31.8322 408.627 33.5026 410.725 34.3096 411.678C35.1154 412.63 35.8978 415.797 36.0479 418.715C36.1969 421.633 36.5535 428.039 36.8397 432.949L37.3593 441.877L31.5824 447.567C28.1737 450.924 25.7749 452.553 25.7303 451.541C25.6881 450.598 24.9538 446.659 24.0975 442.788C23.2412 438.918 22.7498 434.695 23.0067 433.405C23.2635 432.115 24.0307 427.364 24.711 422.849ZM31.7747 565.491C32.3964 560.079 33.2164 555.148 33.5964 554.533C33.9764 553.919 35.6773 555.492 37.3769 558.03C42.5006 565.677 46.0137 569.261 52.7841 573.738C56.3324 576.085 60.2408 579.118 61.4701 580.478C62.6994 581.84 64.439 582.953 65.3363 582.953C66.2336 582.953 69.3714 584.233 72.3097 585.796L77.6515 588.641L72.8657 591.661C70.2335 593.323 67.7761 594.683 67.4055 594.683C65.9005 594.683 56.3946 599.451 55.719 600.544C55.319 601.191 54.2621 601.72 53.3706 601.72C51.4598 601.72 34.0163 588.981 34.0163 587.586C34.0163 587.06 32.902 586.276 31.5402 585.845C29.3596 585.153 29.1578 584.477 29.8534 580.193C30.2886 577.518 31.1531 570.901 31.7747 565.491ZM34.5195 365.56C35.9154 363.335 36.7165 359.543 38.1499 348.368C38.72 343.917 52.4182 300.445 53.8563 298.524C54.3407 297.875 55.4351 295.498 56.289 293.24C57.143 290.982 59.5511 285.44 61.6414 280.924C63.7316 276.408 66.4835 270.338 67.7562 267.436C70.8599 260.358 83.866 242.343 87.1351 240.593C88.5744 239.824 91.0024 237.366 92.532 235.134C94.0628 232.901 95.7413 231.075 96.2633 231.075C96.7865 231.075 101.336 227.992 106.376 224.225C117.826 215.665 124.307 212.28 138.412 207.493C149.329 203.787 152.917 202.924 167.151 200.584C171.021 199.949 177.092 198.892 180.64 198.236C184.188 197.581 191.578 196.554 197.062 195.955C202.545 195.355 213.63 193.996 221.694 192.932C229.759 191.868 239.26 190.795 242.808 190.545C255.74 189.637 269.787 189.334 269.767 189.964C269.755 190.318 268.358 191.926 266.662 193.536C264.966 195.147 259.692 201.744 254.944 208.198C250.195 214.651 244.578 222.043 242.462 224.624C236.455 231.947 229.905 241.248 229.905 242.452C229.905 243.054 227.398 246.257 224.334 249.571C221.269 252.884 217.212 258.127 215.317 261.222C213.423 264.317 209.992 269.316 207.693 272.33L203.513 277.81L193.543 277.832C183.325 277.853 170.95 279.281 162.243 281.443C156.568 282.851 140.134 291.223 136.578 294.516C135.245 295.75 133.548 296.759 132.807 296.759C132.064 296.759 130.889 297.82 130.194 299.117C129.5 300.415 127.238 303.332 125.168 305.599C123.098 307.866 119.161 312.175 116.419 315.173C113.676 318.171 111.434 321.242 111.434 321.998C111.434 322.754 110.378 324.328 109.088 325.495C107.797 326.663 106.738 328.197 106.735 328.903C106.73 329.609 105.895 331.771 104.878 333.706C101.222 340.665 91.6898 365.472 90.9086 370.067C90.4687 372.647 89.6957 375.286 89.189 375.931C88.2928 377.074 86.9897 383.159 83.7862 401.149C80.8467 417.662 76.4785 433.978 74.3402 436.43C73.4522 437.448 72.725 438.716 72.725 439.248C72.725 442.089 65.2647 455.058 61.6555 458.494C59.3564 460.681 57.4761 462.878 57.4761 463.374C57.4761 464.985 47.46 469.179 43.6161 469.179C41.5622 469.179 39.8813 468.921 39.8813 468.606C39.8813 467.595 43.8612 463.003 48.3491 458.835C54.4345 453.184 56.9013 446.098 56.7946 434.578C56.6198 415.803 55.299 409.522 49.766 401.149C43.5457 391.739 39.0848 386.945 34.7131 384.975C31.3818 383.474 31.3618 383.404 32.1431 375.777C32.5759 371.549 33.6457 366.953 34.5195 365.56ZM46.416 524.893C47.3884 523.603 49.4458 520.964 50.9895 519.029C52.5331 517.093 56.0978 512.607 58.913 509.059C61.727 505.511 66.7415 498.121 70.0564 492.638C73.3713 487.154 78.7506 479.765 82.0103 476.217C85.2701 472.669 87.9456 469.354 87.9562 468.852C87.9656 468.349 89.9538 465.338 92.3725 462.16C101.21 450.555 105.011 445.076 106.345 442.025C107.095 440.31 109.883 436.877 112.541 434.396C115.2 431.915 118.467 427.722 119.802 425.078C121.138 422.433 124.57 417.685 127.43 414.525C132.656 408.752 134.815 405.765 141.968 394.405C144.1 391.019 146.173 388.247 146.573 388.247C146.973 388.247 149.104 385.213 151.309 381.503C154.76 375.694 157.224 372.139 161.69 366.517C162.217 365.856 163.625 363.745 164.819 361.826C166.014 359.907 168.129 357.018 169.519 355.405C170.908 353.792 173.548 349.838 175.385 346.618C177.223 343.397 179.983 339.438 181.52 337.821C183.055 336.203 185.139 333.295 186.151 331.36C187.941 327.936 189.436 326.064 202.927 310.368C206.475 306.239 211.857 299.509 214.886 295.412C217.915 291.314 226.097 280.365 233.068 271.081C240.038 261.796 246.533 253.066 247.5 251.682C250.414 247.512 256.235 239.912 256.996 239.285C257.386 238.963 259.112 236.455 260.829 233.714C262.546 230.973 264.472 228.729 265.11 228.729C265.747 228.729 266.268 227.752 266.268 226.557C266.268 225.363 267.72 222.817 269.494 220.901C277.487 212.268 290.018 196.806 292.968 191.935C294.089 190.084 297.749 185.013 301.101 180.666C304.454 176.318 309.658 169.123 312.667 164.678C315.676 160.231 320.116 154.482 322.534 151.902C324.953 149.322 328.541 144.835 330.508 141.932C332.475 139.029 336.245 134.567 338.885 132.017C341.525 129.467 343.685 126.514 343.685 125.455C343.685 124.396 344.722 122.591 345.99 121.443C348.222 119.424 348.342 119.464 349.75 122.728C350.549 124.581 352.018 126.944 353.015 127.98C354.013 129.016 358.499 133.899 362.985 138.83C367.471 143.762 371.768 147.797 372.535 147.797C373.302 147.797 376.571 150.172 379.8 153.075C383.03 155.978 385.975 158.353 386.347 158.353C386.718 158.353 389.807 159.609 393.212 161.145C396.616 162.68 401.937 164.972 405.035 166.239L410.668 168.541L406.468 173.71C404.159 176.553 401.205 180.138 399.905 181.676C398.605 183.213 396.779 185.944 395.849 187.742C394.919 189.541 392.001 193.562 389.364 196.676C373.546 215.361 367.041 222.804 357.209 233.466C353.319 237.684 349.081 242.671 347.791 244.548C345.275 248.208 342.415 251.589 331.369 263.961C327.498 268.298 322.516 274.332 320.298 277.373C318.08 280.413 314.782 284.301 312.967 286.014C311.154 287.726 309.669 289.696 309.669 290.392C309.669 291.089 308.349 292.897 306.736 294.413C305.123 295.928 303.804 297.618 303.804 298.171C303.804 298.722 301.692 301.845 299.112 305.109C296.531 308.373 294.42 311.547 294.42 312.163C294.42 312.777 292.114 315.765 289.296 318.802C286.477 321.838 283.332 325.969 282.306 327.983C281.28 329.996 277.784 334.746 274.538 338.54C271.291 342.332 268.63 346.067 268.625 346.84C268.615 348.084 266.994 350.215 261.217 356.578C260.339 357.546 257.867 360.926 255.725 364.089C253.583 367.253 250.856 370.816 249.666 372.007C248.475 373.197 247.5 374.679 247.5 375.298C247.5 375.916 246.233 377.632 244.684 379.11C243.136 380.587 240.364 383.942 238.526 386.567C231.132 397.122 226.117 403.495 225.204 403.495C224.675 403.495 221.426 407.039 217.983 411.369C214.54 415.7 210.469 420.581 208.934 422.219C207.399 423.855 204.191 427.833 201.805 431.059C199.419 434.285 194.446 441.01 190.755 446.003C187.063 450.998 183.056 455.612 181.85 456.257C180.645 456.902 179.309 459.018 178.883 460.959C178.288 463.666 177.463 464.488 175.338 464.488C173.814 464.488 172.213 465.061 171.78 465.761C171.347 466.462 165.696 469.625 159.221 472.791C145.271 479.612 130.732 492.042 129.5 498.197C129.098 500.21 127.515 503.033 125.983 504.473C124.453 505.911 122.868 508.857 122.462 511.019C122.056 513.18 121.349 515.181 120.89 515.465C119.935 516.055 120.28 530.557 121.408 537.229C122.117 541.433 121.68 542.31 113.994 552.062C109.502 557.763 103.952 564.345 101.663 566.689C97.7964 570.647 97.0961 570.916 91.8564 570.438C88.7538 570.157 83.5751 568.681 80.3494 567.161C77.1237 565.64 72.9009 563.703 70.9655 562.858C65.6202 560.52 58.4931 553.912 54.2914 547.398C52.2164 544.183 49.5127 540.443 48.2822 539.087C44.2495 534.645 43.48 528.789 46.416 524.893ZM102.045 412.641C102.688 411.159 103.949 405.196 104.848 399.39C106.69 387.489 111.755 367.167 114.202 361.856C115.093 359.921 117.825 353.587 120.273 347.781C122.72 341.975 125.325 336.697 126.062 336.052C126.799 335.407 129.563 331.976 132.204 328.428C139.637 318.444 151.187 307.912 158.94 304.051C165.511 300.78 182.085 297.045 185.293 298.115C186.106 298.386 183.284 302.763 178.584 308.52C174.12 313.986 169.041 320.918 167.295 323.923C165.549 326.928 163.35 329.683 162.409 330.044C161.469 330.404 160.699 331.391 160.699 332.235C160.699 333.078 159.116 335.503 157.18 337.622C155.245 339.741 153.661 342.111 153.661 342.889C153.661 343.666 151.39 346.933 148.615 350.147C145.84 353.362 142.311 357.839 140.775 360.097C139.238 362.355 136.29 366.115 134.226 368.454C132.161 370.793 129.168 375.279 127.575 378.424C122.578 388.288 119.442 393.439 116.861 396.02C111.977 400.908 109.077 404.448 105.004 410.5C100.764 416.8 100.002 417.352 102.045 412.641ZM141.931 523.044C145.647 521.114 148.509 520.463 151.902 520.775C153.837 520.952 158.06 521.203 161.286 521.332C164.511 521.461 170.831 522.579 175.329 523.817C182.124 525.685 183.959 526.741 186.179 530.052C189.144 534.475 189.846 543.21 187.385 545.065C186.579 545.674 179.32 546.037 171.256 545.874C150.356 545.448 142.887 542.574 140.874 534.183C139.409 528.077 139.781 524.16 141.931 523.044ZM162.853 493.127C166.294 490.868 171.309 488.156 173.996 487.1C176.682 486.046 180.003 484.466 181.375 483.591C186.195 480.518 201.166 477.815 219.349 476.736C222.897 476.526 229.686 475.789 234.436 475.098C250.51 472.76 270.08 472.495 286.795 472.021C320.579 471.065 341.185 466.443 353.472 457.065C356.575 454.696 359.546 452.758 360.074 452.758C362.589 452.758 368.048 437.638 369.39 426.954C370.161 420.825 371.091 414.228 371.458 412.292C373.175 403.243 372.858 394.572 370.585 388.428C367.042 378.844 355.52 355.46 351.433 349.557C341.8 335.641 331.999 325.33 324.038 320.738C321.94 319.529 320.226 318.125 320.226 317.618C320.226 317.113 319.434 316.699 318.466 316.699C317.498 316.699 316.707 316.416 316.707 316.071C316.707 313.993 328.716 298.124 344.191 279.751C346.364 277.171 352.686 269.517 358.237 262.744C363.789 255.97 373.053 245.414 378.825 239.285C393.23 223.986 395.143 221.786 398.672 216.469C400.364 213.921 402.937 210.544 404.39 208.965C405.842 207.387 408.481 203.801 410.255 200.994C413.305 196.165 416.287 194.701 420.516 195.957C421.161 196.148 434.621 196.453 450.427 196.634C466.233 196.815 495.793 197.29 516.115 197.688C560.933 198.569 600.26 199.28 608.194 199.353L614.059 199.406L614.29 286.496C614.418 334.396 614.627 387.98 614.755 405.572C614.883 423.165 614.705 437.841 614.362 438.186C614.017 438.529 601.404 438.914 586.332 439.041C561.401 439.248 558.585 439.477 555.117 441.576C553.019 442.843 551.304 444.335 551.304 444.893C551.304 445.45 549.325 447.91 546.906 450.362C544.487 452.813 540.396 457.349 537.815 460.442C535.234 463.534 532.178 466.897 531.023 467.915C529.868 468.933 526.692 472.009 523.963 474.751C521.235 477.492 518.583 479.736 518.07 479.736C517.175 479.736 514.843 481.721 506.031 489.99C503.801 492.083 499.802 494.904 497.145 496.26C494.487 497.616 490.999 499.943 489.392 501.434C487.785 502.923 485.091 504.827 483.405 505.666C479.113 507.799 468.688 515.083 468.218 516.278C468.002 516.824 466.887 517.269 465.737 517.269C464.588 517.269 462.305 518.325 460.664 519.615C459.024 520.905 456.609 521.961 455.296 521.961C453.985 521.961 452.568 522.517 452.148 523.196C451.728 523.876 446.942 526.573 441.513 529.189C436.083 531.805 431.349 534.416 430.994 534.991C430.639 535.566 429.447 536.036 428.347 536.036C427.247 536.036 424.485 537.033 422.211 538.252C419.938 539.471 414.666 541.401 410.499 542.541C406.331 543.681 402.393 544.984 401.748 545.437C401.103 545.89 398.916 546.127 396.886 545.965C394.857 545.803 390.106 546.451 386.329 547.404C382.552 548.358 378.142 549.025 376.529 548.886C374.916 548.747 372.541 548.7 371.251 548.782C352.546 549.969 266.123 550.62 256.298 549.647C253.072 549.328 242.391 548.786 232.561 548.442C215.072 547.831 208.938 547.099 208.647 545.586C208.568 545.172 208.34 541.402 208.142 537.209C207.734 528.575 203.885 519.385 198.564 514.337C194.676 510.648 185.108 505.54 182.086 505.54C180.904 505.54 179.425 505.029 178.799 504.403C177.554 503.158 164.21 501.42 156.264 501.469L151.244 501.499L153.918 499.366C155.39 498.193 159.41 495.385 162.853 493.127ZM213.898 448.093C218.093 441.946 219.601 440.067 225.467 433.661C230.244 428.446 230.243 428.445 232.118 438.097C232.744 441.322 233.891 446.224 234.668 448.988C235.443 451.753 235.85 454.242 235.573 454.52C235.295 454.797 229.816 455.377 223.397 455.81C216.977 456.242 210.76 457.092 209.582 457.699C207.644 458.696 207.578 458.542 208.876 456.073C209.666 454.573 211.925 450.981 213.898 448.093ZM228.439 568.803C238.75 568.564 253.546 569.129 256.313 569.869C258.081 570.342 263.022 570.334 267.296 569.852C271.569 569.37 278.106 569.285 281.823 569.665C288.516 570.35 288.604 570.409 291.025 575.775C295.185 584.998 296.915 590.37 297.488 595.856C297.793 598.759 298.546 602.664 299.163 604.534C299.78 606.405 300.285 608.077 300.285 608.251C300.285 609.562 289.248 621.073 286.745 622.372C282.711 624.464 276.607 624.456 271.802 622.353C267.69 620.552 246.525 600.471 240.784 592.923C235.239 585.633 225.231 570.736 225.222 569.758C225.217 569.273 226.666 568.844 228.439 568.803ZM251.608 413.465C252.027 410.24 252.857 407.098 253.454 406.486C254.05 405.873 254.538 404.107 254.538 402.562C254.538 399.702 257.919 392.939 259.349 392.939C259.781 392.939 262.407 389.508 265.184 385.315C267.961 381.122 270.671 377.691 271.208 377.691C271.745 377.691 272.816 376.239 273.59 374.465C274.363 372.692 277.254 368.61 280.015 365.395C282.777 362.181 285.036 359.085 285.036 358.515C285.036 357.433 292.852 346.3 295.041 344.262C295.735 343.617 297.839 340.786 299.718 337.971C301.597 335.156 303.819 332.591 304.654 332.269C305.49 331.949 307.964 333.053 310.153 334.722L314.132 337.756L311.85 345.085C310.596 349.115 309.686 353.482 309.829 354.789C309.972 356.096 309.731 358.748 309.292 360.683C307.582 368.23 306.375 390.03 307.319 396.325C307.862 399.946 308.6 406.076 308.96 409.946C309.651 417.403 310.6 422.885 311.7 425.781C312.069 426.749 312.541 428.068 312.752 428.713C313.603 431.319 318.772 445.274 319.614 447.237C320.109 448.394 320.318 449.529 320.078 449.759C319.836 449.99 313.305 450.511 305.563 450.918C290.855 451.691 283.319 452.271 271.547 453.537C259.804 454.8 256.65 454.645 255.662 452.758C255.155 451.791 253.654 446.512 252.325 441.029C249.98 431.345 249.864 426.893 251.608 413.465ZM313.601 570.489C315.117 570.87 316.712 570.828 317.145 570.395C317.578 569.962 330.124 569.575 345.025 569.536L372.119 569.465L373.171 572.232C373.873 574.082 373.645 576.996 372.48 581.029C371.522 584.346 370.447 588.906 370.094 591.164C369.3 596.23 363.019 601.78 354.101 605.294C348.674 607.433 347.241 607.572 342.938 606.367C340.223 605.606 336.047 603.195 333.657 601.007C331.269 598.818 328.963 597.028 328.534 597.028C326.465 597.028 317.568 586.267 314.466 580.014C310.111 571.235 309.961 569.576 313.601 570.489ZM327.931 365.447C328.371 362.827 329.194 359.456 329.76 357.957C330.766 355.297 330.886 355.352 334.849 360.303C337.083 363.092 340.047 367.75 341.437 370.653C342.826 373.556 344.991 378.043 346.247 380.623C351.615 391.647 352.667 395.857 352.416 405.311C352.28 410.44 351.489 417.013 350.659 419.916C349.828 422.819 349.276 426.137 349.431 427.289C349.944 431.108 345.962 439.392 342.68 441.329L339.492 443.213L336.679 437.136C333.955 431.251 330.008 418.876 328.941 412.879C326.576 399.588 326.083 376.458 327.931 365.447ZM364.115 100.325L366.95 96.1481L368.351 100.393C369.613 104.217 383.621 119.646 385.83 119.646C386.294 119.646 390.015 122.54 394.099 126.076C398.182 129.612 402.63 132.855 403.982 133.283C405.334 133.71 410.23 136.36 414.862 139.169C419.494 141.979 424.026 144.278 424.93 144.278C427.441 144.278 428.267 145.646 426.814 147.396C426.008 148.367 423.013 148.97 419.001 148.97C413.871 148.97 411.11 148.188 405.949 145.275C402.348 143.243 399.138 141.672 398.816 141.783C397.888 142.103 390.605 137.964 390.605 137.116C390.605 136.696 387.686 134.102 384.121 131.35C380.554 128.599 376.772 124.885 375.716 123.097C374.659 121.31 372.563 119.285 371.057 118.599C369.551 117.913 368.318 116.807 368.318 116.143C368.318 115.478 366.735 112.749 364.799 110.077C362.864 107.406 361.28 105.058 361.28 104.861C361.28 104.663 362.556 102.623 364.115 100.325ZM387.943 69.6727C394.823 60.6481 395.658 59.6477 399.522 55.8133C401.523 53.8276 404.277 50.3205 405.643 48.0204C407.007 45.7203 409.201 42.863 410.519 41.6713C412.879 39.5354 413.002 39.6046 419.032 46.4405C426.311 54.6908 436.552 64.5013 437.896 64.5118C438.423 64.5154 440.534 65.7621 442.588 67.281C445.873 69.7113 451.374 72.5054 463.917 78.1131C465.852 78.9776 468.876 80.0226 470.638 80.4342C473.397 81.0794 473.669 81.5017 472.601 83.4956C471.921 84.7683 470.48 86.7494 469.399 87.8976C464.917 92.6632 456.292 104.495 456.292 105.877C456.292 107.076 451.21 114.176 447.121 118.692C445.551 120.425 443.646 123.064 442.888 124.556C440.611 129.045 432.863 127.763 423.433 121.335C419.23 118.471 415.419 116.128 414.963 116.128C413.269 116.128 395.219 101.852 393.398 99.0721C392.358 97.4852 390.821 96.1879 389.981 96.1879C389.14 96.1879 387.641 93.9441 386.648 91.203C382.51 79.768 382.704 76.5448 387.943 69.6727ZM407.597 564.201C409.315 562.774 436.56 554.621 437.263 555.324C439.054 557.115 428.93 567.482 422.02 570.933C417.457 573.212 415.869 573.414 408.999 572.587C403.184 571.887 400.392 570.913 398.13 568.795L395.083 565.946L400.732 565.578C403.839 565.375 406.928 564.755 407.597 564.201ZM431.848 22.935C432.597 21.2917 433.549 19.9475 433.964 19.9475C434.381 19.9475 438.123 22.3461 442.281 25.2784C446.439 28.2107 452.676 32.0368 456.141 33.7821C459.606 35.5275 464.357 39.0697 466.698 41.6537C469.039 44.2377 473.122 47.8198 475.771 49.6133C480.66 52.9233 483.271 56.9077 483.271 61.0552C483.271 62.3149 482.597 63.3459 481.772 63.3459C478.452 63.3459 455.422 52.7555 451.386 49.3728C449.01 47.3811 446.575 45.752 445.975 45.752C443.22 45.752 431.425 30.7865 430.532 26.1605C430.508 26.0292 431.099 24.5782 431.848 22.935Z" fill="black"/>
</svg>
